<?xml version="1.0" encoding="utf-8"?><svg viewBox="0 0 502.66 502.66" xmlns="http://www.w3.org/2000/svg" xmlns:xlink="http://www.w3.org/1999/xlink"><style>:root>svg{display:none}:root>svg:target{display:block}</style><svg viewBox="0 0 16 16" id="check" xmlns="http://www.w3.org/2000/svg"><path d="M8 15.334c4.043 0 7.333-3.29 7.333-7.334a7.27 7.27 0 00-.29-2.044.61.61 0 10-1.173.343A6.118 6.118 0 018 14.111a6.118 6.118 0 01-6.111-6.11 6.118 6.118 0 016.11-6.112 6.07 6.07 0 013.408 1.035.611.611 0 00.683-1.013A7.288 7.288 0 008 .667C3.956.667.667 3.957.667 8c0 4.044 3.29 7.334 7.333 7.334z"/><path d="M14.862 1.529L8 8.39 5.804 6.196a.667.667 0 00-.942.942l2.666 2.667a.664.664 0 00.943 0l7.333-7.333a.667.667 0 00-.942-.943z"/></svg><svg viewBox="0 0 84 84" id="hero-span" xmlns="http://www.w3.org/2000/svg"><circle opacity=".12" cx="42" cy="42" r="42"/><circle cx="42" cy="42" r="26"/><path d="M48.5 41.134a1 1 0 010 1.732l-9 5.196a1 1 0 01-1.5-.866V36.804a1 1 0 011.5-.866l9 5.196z"/></svg><svg viewBox="0 0 502.664 502.664" id="icon" xmlns="http://www.w3.org/2000/svg"><path d="M153.821 358.226L0 274.337v-46.463l153.821-83.414v54.574L46.636 250.523l107.185 53.431v54.272zm26.273 29.358L282.103 115.08h32.227L212.084 387.584h-31.99zm168.749-29.358v-54.272l107.164-52.999-107.164-52.59v-53.927l153.821 83.522v46.183l-153.821 84.083z"/></svg><svg viewBox="0 0 130 22" id="logo" xmlns="http://www.w3.org/2000/svg"><g clip-path="url(#da)"><path d="M0 11.1C0 5 3.3 1.3 8.7 1.3c4.1 0 7.4 2.5 8 6.2.1.4-.2.7-.6.7h-2.6c-.3 0-.5-.2-.6-.5-.5-1.9-2.1-3.1-4.2-3.1C5.8 4.6 4 7.1 4 11.1s1.8 6.5 4.8 6.5c2.1 0 3.6-1.1 4.2-2.9.1-.3.3-.5.6-.5h2.6c.4 0 .7.4.6.7-.6 3.6-3.8 6-8 6-5.5 0-8.8-3.8-8.8-9.8zm24.3 9.3h-2.9c-.3 0-.5-.2-.5-.5V2.6c0-.4.4-.8.8-.8h7c4.1 0 6.6 2.3 6.6 5.9 0 2.1-1 4-2.7 5-.4.2-.5.7-.3 1l3.1 5.9c.2.3-.1.7-.4.7h-3.3c-.2 0-.4-.1-.5-.3l-2.9-6c-.1-.3-.4-.4-.7-.4h-2.3c-.3 0-.5.2-.5.5V20c.1.2-.2.4-.5.4zm.6-10.2c0 .3.2.5.5.5h3c2 0 3.1-1.1 3.1-2.9 0-1.8-1.2-2.9-3.1-2.9h-2.9c-.3 0-.5.2-.5.5v4.8h-.1zm26.6 10.2h-11c-.4 0-.7-.3-.7-.7V2.5c0-.4.3-.7.7-.7h11c.4 0 .7.3.7.7v1.9c0 .4-.3.7-.7.7h-7.3c-.3 0-.5.2-.5.5V9c0 .3.2.5.5.5H51c.4 0 .7.3.7.7v1.7c0 .4-.3.7-.7.7h-6.8c-.3 0-.5.2-.5.5v3.8c0 .3.2.5.5.5h7.3c.4 0 .7.3.7.7V20c0 .1-.3.4-.7.4zM67 15.9h-5.7c-.3 0-.5.2-.6.4L59.6 20c-.1.3-.3.4-.6.4h-2.6c-.4 0-.7-.4-.6-.8l6-17.4c.1-.2.3-.4.6-.4h3.7c.3 0 .5.2.6.4l6 17.4c.1.4-.2.8-.6.8h-2.9c-.3 0-.5-.2-.6-.4l-1.1-3.7c0-.2-.3-.4-.5-.4zM62.1 13h4.1c.2 0 .3-.2.3-.4l-2.2-7h-.2l-2.2 7c-.1.2 0 .4.2.4zM79 19.7V5.5c0-.3-.2-.5-.5-.5h-4.4c-.4 0-.8-.3-.8-.8V2.5c0-.4.3-.8.8-.8h13.6c.4 0 .8.3.8.8v1.7c0 .4-.3.8-.8.8h-4.4c-.3 0-.5.2-.5.5v14.3c0 .4-.3.7-.7.7h-2.5c-.3-.1-.6-.4-.6-.8zm24.8.7h-11c-.4 0-.7-.3-.7-.7V2.5c0-.4.3-.7.7-.7h11c.4 0 .7.3.7.7v1.9c0 .4-.3.7-.7.7h-7.3c-.3 0-.5.2-.5.5V9c0 .3.2.5.5.5h6.8c.4 0 .7.3.7.7v1.7c0 .4-.3.7-.7.7h-6.8c-.3 0-.5.2-.5.5v3.8c0 .3.2.5.5.5h7.3c.4 0 .7.3.7.7V20c0 .1-.3.4-.7.4zM117.7 9.7l-6.2-8.1c-.4-.4-.9-.6-1.4-.6-.5 0-1 .2-1.4.6-.7.8-.7 2 0 2.8l4.9 6.6-4.9 6.6c-.7.8-.7 2 0 2.8.4.4.9.6 1.4.6.5 0 1-.2 1.4-.6l6.2-8.1c.7-.6.7-1.8 0-2.6zm2.643 0l6.2-8.1c.4-.4.9-.6 1.4-.6.5 0 1 .2 1.4.6.7.8.7 2 0 2.8l-4.9 6.6 4.9 6.6c.7.8.7 2 0 2.8-.4.4-.9.6-1.4.6-.5 0-1-.2-1.4-.6l-6.2-8.1c-.7-.6-.7-1.8 0-2.6z"/></g><defs><clipPath id="da"><path d="M0 0h130v22H0z"/></clipPath></defs></svg><svg viewBox="0 0 20 20" id="profile" xmlns="http://www.w3.org/2000/svg"><path fill-rule="evenodd" clip-rule="evenodd" d="M10 2.709a2.917 2.917 0 100 5.833 2.917 2.917 0 000-5.833zM5.417 5.625a4.583 4.583 0 119.167 0 4.583 4.583 0 01-9.167 0zm-.33 7.084c-.578 0-1.03.281-1.213.685-.253.56-.483 1.226-.537 1.857-.025.283.093.49.255.592.858.532 2.845 1.449 6.408 1.449s5.55-.917 6.408-1.45c.162-.1.28-.308.256-.59-.054-.632-.284-1.298-.538-1.858-.183-.404-.635-.685-1.213-.685H5.088zm-2.73-.003c.506-1.117 1.637-1.664 2.73-1.664h9.827c1.092 0 2.223.547 2.73 1.664.291.641.603 1.504.68 2.403.07.818-.27 1.673-1.036 2.15-1.128.7-3.421 1.7-7.288 1.7-3.866 0-6.16-1-7.287-1.7-.767-.477-1.107-1.332-1.037-2.15.077-.9.39-1.762.68-2.403z"/></svg></svg>